<svg width="149" height="261" viewBox="0 0 149 261" fill="none" xmlns="http://www.w3.org/2000/svg">
<path d="M76.2997 217.325L17.9887 52.192L7.52515 54.037L7.09103 51.575L47.7144 44.412L48.1485 46.874L37.9311 48.6756L77.8058 165.4L76.6979 165.595L72.6456 42.5545L62.9206 44.2693L62.4865 41.8073L86.245 37.618L86.6791 40.08L75.3538 42.077L80.362 216.609L76.2997 217.325Z" fill="black"/>
<path d="M85.7564 217.393L87.104 77.2984L78.7332 75.8224L79.0805 73.8528L111.579 79.5832L111.232 81.5528L103.058 80.1115L101.096 178.77L100.21 178.613L130.83 85.0084L123.05 83.6366L123.397 81.667L142.404 85.0184L142.056 86.988L132.996 85.3904L89.0063 217.966L85.7564 217.393Z" fill="black"/>
</svg>
